HIERARCHY
ROOT hip
{
	OFFSET 0.000000 0.000000 0.000000 
	CHANNELS 6 Xposition Yposition Zposition Xrotation Zrotation Yrotation
	JOINT abdomen
	{
		OFFSET 0.000000 3.402643 0.000000 
		CHANNELS 3 Xrotation Zrotation Yrotation
		JOINT chest
		{
			OFFSET 0.000000 8.438565 -0.680529 
			CHANNELS 3 Xrotation Zrotation Yrotation
			JOINT neck
			{
				OFFSET 0.000000 10.207942 -0.272212 
				CHANNELS 3 Xrotation Zrotation Yrotation
				JOINT head
				{
					OFFSET 0.000000 3.130431 0.000000 
					CHANNELS 3 Xrotation Zrotation Yrotation
					End Site
					{
						OFFSET 0.000000 3.130435 0.000000 
					}
				}
			}
			JOINT lCollar
			{
				OFFSET 3.470700 6.669187 -0.816635 
				CHANNELS 3 Yrotation Zrotation Xrotation
				JOINT lShldr
				{
					OFFSET 3.198488 0.000000 0.000000 
					CHANNELS 3 Zrotation Yrotation Xrotation
					JOINT lForeArm
					{
						OFFSET 10.139888 0.000000 0.000000 
						CHANNELS 3 Yrotation Zrotation Xrotation
						JOINT lHand
						{
							OFFSET 8.370511 0.000000 0.000000 
							CHANNELS 3 Zrotation Yrotation Xrotation
							End Site
							{
								OFFSET 4.083176 0.000000 0.000000 
							}
						}
					}
				}
			}
			JOINT rCollar
			{
				OFFSET -3.470700 6.669187 -0.816635 
				CHANNELS 3 Yrotation Zrotation Xrotation
				JOINT rShldr
				{
					OFFSET -3.198488 0.000000 0.000000 
					CHANNELS 3 Zrotation Yrotation Xrotation
					JOINT rForeArm
					{
						OFFSET -10.139888 0.000000 0.000000 
						CHANNELS 3 Yrotation Zrotation Xrotation
						JOINT rHand
						{
							OFFSET -8.370511 0.000000 0.000000 
							CHANNELS 3 Zrotation Yrotation Xrotation
							End Site
							{
								OFFSET -4.083176 0.000000 0.000000 
							}
						}
					}
				}
			}
		}
	}
	JOINT lThigh
	{
		OFFSET 5.308129 -1.633274 1.361059 
		CHANNELS 3 Xrotation Zrotation Yrotation
		JOINT lShin
		{
			OFFSET -2.041588 -20.007561 0.000000 
			CHANNELS 3 Xrotation Zrotation Yrotation
			JOINT lFoot
			{
				OFFSET 0.000000 -19.190928 -1.224953 
				CHANNELS 3 Xrotation Yrotation Zrotation
				End Site
				{
					OFFSET 0.000000 -2.449906 4.627600 
				}
			}
		}
	}
	JOINT rThigh
	{
		OFFSET -5.308129 -1.633274 1.361059 
		CHANNELS 3 Xrotation Zrotation Yrotation
		JOINT rShin
		{
			OFFSET 2.041588 -20.007561 0.000000 
			CHANNELS 3 Xrotation Zrotation Yrotation
			JOINT rFoot
			{
				OFFSET 0.000000 -19.190928 -1.224953 
				CHANNELS 3 Xrotation Yrotation Zrotation
				End Site
				{
					OFFSET 0.000000 -2.449906 4.627600 
				}
			}
		}
	}
}
MOTION
Frames: 8
Frame Time: 0.033333
-2.859545 49.886814 0.271090 -3.052708 0.644342 -1.386741 0.000000 0.000000 0.000000 -8.706694 3.390344 7.298326 45.128994 -4.150187 -0.568455 -24.456846 -0.058475 3.642577 -14.788135 -2.127786 24.786934 -81.486084 17.307528 -7.157242 -51.622574 9.476971 68.384109 -15.674579 -7.462534 -56.703827 -4.800082 2.152241 24.911776 57.170662 -3.964681 64.902298 25.203098 -35.287453 18.542183 38.492664 0.251136 -81.355652 -0.685849 22.124281 25.873081 27.418482 7.916178 0.764274 5.693394 -10.300410 12.207913 13.766488 6.776162 2.882756 5.122759 -1.991286 -0.835281 18.022974 -7.455933 8.631071 
-2.793751 49.882870 0.265040 -2.892813 0.556512 -1.230506 0.000000 0.000000 0.000000 -8.843541 3.593367 7.348865 45.076870 -3.954898 -0.548267 -24.419950 -0.097479 3.457026 -15.019380 -2.054277 24.812117 -81.756447 17.207832 -6.968847 -51.736614 9.496637 68.819435 -15.948624 -7.618367 -56.556004 -4.982245 2.217101 24.928654 57.057194 -3.993444 64.835732 25.342480 -35.396904 18.651937 38.708660 0.188718 -81.382385 -0.978179 21.344753 25.451324 27.605009 8.170184 0.838074 5.690835 -10.993871 11.900554 13.574088 6.826238 2.904863 5.101011 -2.048744 -0.856899 18.092052 -7.531862 8.815451 
-2.722165 49.870102 0.253706 -2.636390 0.527259 -1.025347 0.000000 0.000000 0.000000 -9.079905 3.719114 7.369616 45.015396 -3.720539 -0.538512 -24.363804 -0.146247 3.261708 -15.273108 -1.891960 24.865868 -82.097420 17.071144 -6.718170 -51.874905 9.524600 69.308266 -16.145010 -7.779596 -56.409920 -5.212573 2.250133 24.923185 56.988354 -4.014952 64.789108 25.468142 -35.540951 18.763861 38.976990 0.148131 -81.415054 -1.447250 20.384720 24.970491 27.793018 8.483144 0.898369 5.771036 -11.699447 11.233548 13.261314 6.806492 2.908263 5.090151 -2.077843 -0.877484 18.176647 -7.637414 9.083857 
-2.660100 49.857815 0.241246 -2.419195 0.419862 -0.966771 0.000000 0.000000 0.000000 -9.224710 3.931748 7.420312 44.924999 -3.583838 -0.519008 -24.304861 -0.146267 3.124990 -15.394478 -1.778833 24.903812 -82.379112 16.942284 -6.508447 -52.119331 9.397196 69.993637 -16.196688 -7.996725 -56.281597 -5.327851 2.195878 24.928072 57.093891 -4.005859 64.861153 25.479897 -35.664577 18.575895 39.059711 0.059072 -81.441978 -1.710331 19.166752 24.368670 27.953070 8.747667 0.965307 5.616027 -12.179975 11.989090 13.004386 6.873435 2.905362 5.129384 -2.136460 -0.878278 18.268560 -7.635200 9.373690 
-2.600722 49.845730 0.228467 -2.241282 0.302694 -0.937487 0.000000 0.000000 0.000000 -9.358096 4.154014 7.471101 44.816010 -3.476426 -0.509247 -24.255219 -0.136530 3.007804 -15.486274 -1.681637 24.935318 -82.641693 16.800970 -6.313787 -52.398746 9.233590 70.723984 -16.182896 -8.226132 -56.163723 -5.416833 2.133018 24.923477 57.244022 -3.989645 64.953857 25.474974 -35.797588 18.308819 39.072495 -0.045327 -81.453079 -1.896205 17.874933 23.767225 28.110094 8.982046 1.016568 5.536345 -12.577750 13.104278 12.746024 6.949300 2.952862 5.213415 -2.216939 -0.907970 18.322618 -7.586131 9.682699 
-2.535698 49.829235 0.211174 -2.004926 0.185523 -0.917964 0.000000 0.000000 0.000000 -9.537883 4.385809 7.532456 44.698471 -3.437365 -0.509241 -24.187780 -0.156040 2.968739 -15.490825 -1.562698 24.967691 -82.874069 16.679167 -6.147239 -52.718491 8.924468 71.176865 -16.488806 -8.165317 -56.081444 -5.464044 2.003413 24.918150 57.547546 -3.937628 65.139572 25.210836 -36.022381 18.078068 39.014969 -0.030529 -81.453651 -2.256684 16.571033 23.164701 28.584713 9.351622 1.076756 4.999636 -12.834988 12.641532 12.429548 6.991172 2.945740 5.311002 -2.207161 -0.866753 18.354021 -7.559318 9.866836 
-2.470116 49.811913 0.192972 -1.749285 0.078115 -0.908202 0.000000 0.000000 0.000000 -9.726434 4.627319 7.584233 44.581024 -3.408069 -0.509237 -24.129606 -0.165797 2.939441 -15.491064 -1.428200 24.991947 -83.117058 16.536259 -5.965464 -53.029522 8.612421 71.597389 -16.805370 -8.119779 -55.998863 -5.523591 1.880442 24.893082 57.850540 -3.894974 65.331230 24.962257 -36.225967 17.866180 38.936810 -0.028652 -81.444321 -2.647292 15.239350 22.587442 29.134562 9.674479 1.121814 4.350396 -12.915760 12.424178 12.078911 7.020988 2.971613 5.395917 -2.206013 -0.865218 18.350651 -7.501884 10.046923 
-2.402549 49.790195 0.170783 -1.445161 -0.009764 -0.888673 0.000000 0.000000 0.000000 -9.988116 4.830054 7.635339 44.482449 -3.369014 -0.499482 -24.081251 -0.175552 2.929674 -15.510022 -1.318515 24.994261 -83.340111 16.400343 -5.806234 -53.301041 8.301760 71.886375 -17.171305 -8.191316 -55.891647 -5.572122 1.707219 24.886528 58.132469 -3.846684 65.497322 24.892597 -36.326408 17.685087 38.720890 -0.094879 -81.419899 -3.116222 13.871347 21.984425 29.959101 9.770042 1.098102 3.292585 -12.234401 13.803403 11.620799 7.011591 2.995892 5.593769 -2.158237 -0.869650 18.311066 -7.451905 10.194329 
